<svg xmlns="http://www.w3.org/2000/svg" viewBox="0 0 1440 320">
  <path fill="#fff" fill-opacity="1" d="M0,32L24,53.3C48,75,96,117,144,149.3C192,181,240,203,288,186.7C336,171,384,117,432,90.7C480,64,528,64,576,101.3C624,139,672,213,720,245.3C768,277,816,267,864,224C912,181,960,107,1008,69.3C1056,32,1104,32,1152,32C1200,32,1248,32,1296,48C1344,64,1392,96,1416,112L1440,128L1440,320L1416,320C1392,320,1344,320,1296,320C1248,320,1200,320,1152,320C1104,320,1056,320,1008,320C960,320,912,320,864,320C816,320,768,320,720,320C672,320,624,320,576,320C528,320,480,320,432,320C384,320,336,320,288,320C240,320,192,320,144,320C96,320,48,320,24,320L0,320Z"></path>
</svg>